<svg xmlns="http://www.w3.org/2000/svg" id="Technology-Robot-Ai--Streamline-Pixel" viewBox="0 0 32 32"><desc>Technology Robot Ai Streamline Icon: https://streamlinehq.com</desc><title>technology-robot-ai</title><g><path fill="#fff" stroke-width="1" d="m30.47 18.28 0 -10.66 -1.52 0 0 9.14 -1.52 0 0 -1.52 -1.53 0 0 12.19 1.53 0 0 -1.53 3.04 0 0 -1.52 1.53 0 0 -6.1 -1.53 0z"/><path fill="#fff" stroke-width="1" d="M24.38 12.19h1.52v3.05h-1.52Z"/><path fill="#fff" stroke-width="1" d="m6.09 27.43 0 1.52 1.53 0 0 1.53 1.52 0 0 -1.53 13.71 0 0 1.53 1.53 0 0 -1.53 1.52 0 0 -1.52 -19.81 0z"/><path fill="#fff" stroke-width="1" d="M22.85 18.28h1.53v3.05h-1.53Z"/><path fill="#fff" stroke-width="1" d="M22.85 10.67h1.53v1.52h-1.53Z"/><path fill="#fff" stroke-width="1" d="M19.81 16.76h3.04v1.52h-3.04Z"/><path fill="#fff" stroke-width="1" d="M9.14 30.48h13.71V32H9.14Z"/><path fill="#fff" stroke-width="1" d="M19.81 21.33h3.04v1.53h-3.04Z"/><path fill="#fff" stroke-width="1" d="M18.28 18.28h1.53v3.05h-1.53Z"/><path fill="#fff" stroke-width="1" d="M18.28 1.52h1.53v1.53h-1.53Z"/><path fill="#fff" stroke-width="1" d="M13.71 24.38h4.57v1.52h-4.57Z"/><path fill="#fff" stroke-width="1" d="M13.71 0h4.57v1.52h-4.57Z"/><path fill="#fff" stroke-width="1" d="M12.19 18.28h1.52v3.05h-1.52Z"/><path fill="#fff" stroke-width="1" d="M12.19 1.52h1.52v1.53h-1.52Z"/><path fill="#fff" stroke-width="1" d="M9.14 16.76h3.05v1.52H9.14Z"/><path fill="#fff" stroke-width="1" d="m22.85 10.67 0 -1.53 -6.09 0 0 -4.57 1.52 0 0 -1.52 -4.57 0 0 1.52 1.52 0 0 4.57 -6.09 0 0 1.53 13.71 0z"/><path fill="#fff" stroke-width="1" d="M9.14 21.33h3.05v1.53H9.14Z"/><path fill="#fff" stroke-width="1" d="M7.62 18.28h1.52v3.05H7.62Z"/><path fill="#fff" stroke-width="1" d="M7.62 10.67h1.52v1.52H7.62Z"/><path fill="#fff" stroke-width="1" d="M6.09 12.19h1.53v3.05H6.09Z"/><path fill="#fff" stroke-width="1" d="m6.09 15.24 -1.52 0 0 1.52 -1.53 0 0 -9.14 -1.52 0 0 10.66 -1.52 0 0 6.1 1.52 0 0 1.52 3.05 0 0 1.53 1.52 0 0 -12.19z"/></g></svg>