<svg xmlns="http://www.w3.org/2000/svg" id="Internet-Network-Wifi-Monitor--Streamline-Pixel" viewBox="0 0 32 32"><desc>Internet Network Wifi Monitor Streamline Icon: https://streamlinehq.com</desc><title>internet-network-wifi-monitor</title><g><path fill="#fff" stroke-width="1" d="M30.47 7.62H32v7.62h-1.53Z"/><path fill="#fff" stroke-width="1" d="M28.95 4.57h1.52v3.05h-1.52Z"/><path fill="#fff" stroke-width="1" d="M27.43 3.05h1.52v1.52h-1.52Z"/><path fill="#fff" stroke-width="1" d="M25.9 9.14h1.53v4.57H25.9Z"/><path fill="#fff" stroke-width="1" d="M24.38 1.52h3.05v1.53h-3.05Z"/><path fill="#fff" stroke-width="1" d="m9.14 27.43 0 1.52 1.53 0 0 -1.52 4.57 0 0 1.52 1.52 0 0 -1.52 7.62 0 0 -1.53 1.52 0 0 -7.62 -1.52 0 0 4.57 -22.86 0 0 -13.71 -1.52 0L0 25.9l1.52 0 0 1.53 7.62 0z"/><path fill="#fff" stroke-width="1" d="M24.38 7.62h1.52v1.52h-1.52Z"/><path fill="#fff" stroke-width="1" d="M22.86 6.09h1.52v1.53h-1.52Z"/><path fill="#fff" stroke-width="1" d="M16.76 0h7.62v1.52h-7.62Z"/><path fill="#fff" stroke-width="1" d="M21.33 10.66h1.53v3.05h-1.53Z"/><path fill="#fff" stroke-width="1" d="M18.28 4.57h4.58v1.52h-4.58Z"/><path fill="#fff" stroke-width="1" d="M18.28 9.14h3.05v1.52h-3.05Z"/><path fill="#fff" stroke-width="1" d="M18.28 13.71h3.05v1.53h-3.05Z"/><path fill="#fff" stroke-width="1" d="M16.76 10.66h1.52v3.05h-1.52Z"/><path fill="#fff" stroke-width="1" d="m9.14 30.47 0 -1.52 -1.52 0 0 3.05 10.66 0 0 -3.05 -1.52 0 0 1.52 -7.62 0z"/><path fill="#fff" stroke-width="1" d="M13.71 18.28h1.53v1.53h-1.53Z"/><path fill="#fff" stroke-width="1" d="M12.19 15.24h1.52v1.52h-1.52Z"/><path fill="#fff" stroke-width="1" d="M7.62 19.81h6.09v1.52H7.62Z"/><path fill="#fff" stroke-width="1" d="M7.62 15.24h1.52v1.52H7.62Z"/><path fill="#fff" stroke-width="1" d="M6.09 18.28h1.53v1.53H6.09Z"/><path fill="#fff" stroke-width="1" d="M1.52 7.62h12.19v1.52H1.52Z"/></g></svg>